<?xml version="1.0" encoding="utf-8"?><svg width="400" height="100" viewBox="0 0 400 100" fill="none" xmlns="http://www.w3.org/2000/svg">
<path d="M0 -100H400V200H0V-100Z" fill="white"/>
<path d="M163.072 29.5137C161.909 29.5137 161.002 30.0589 160.376 31.1579L145.848 60.9852L130.902 31.1316C130.282 30.0589 129.383 29.5147 128.215 29.5147C127.364 29.5147 126.638 29.8073 126.055 30.3884C125.471 30.9705 125.177 31.6947 125.177 32.5431V67.2484C125.177 68.0958 125.471 68.821 126.055 69.4021C126.638 69.9831 127.364 70.2779 128.215 70.2779C129.066 70.2779 129.792 69.9831 130.377 69.4021C130.96 68.821 131.258 68.0958 131.258 67.2484V43.7874L142.846 66.9463C143.427 68.1379 144.367 68.74 145.647 68.74C146.734 68.74 147.61 68.2379 148.266 67.2389L160.031 43.3463V67.2473C160.031 68.0947 160.325 68.82 160.909 69.401C161.492 69.9821 162.218 70.2768 163.072 70.2768C163.89 70.2768 164.602 69.9863 165.204 69.4073C165.804 68.8263 166.115 68.0989 166.115 67.2473V32.5421C166.115 31.6937 165.819 30.9695 165.236 30.3873C164.654 29.8073 163.925 29.5137 163.072 29.5137Z" fill="#00707F"/>
<path d="M204.693 32.1263C201.634 30.3958 198.094 29.5147 194.179 29.5147H184.87C184.023 29.5147 183.3 29.8 182.717 30.361C182.13 30.9274 181.83 31.66 181.83 32.5463V67.2484C181.83 68.1 182.126 68.8242 182.71 69.4063C183.293 69.9874 184.019 70.2842 184.87 70.2842H194.179C198.099 70.2842 201.637 69.4021 204.693 67.6726C207.752 65.94 210.172 63.4937 211.876 60.4084C213.573 57.3242 214.442 53.7821 214.442 49.8768C214.442 45.9684 213.579 42.4358 211.876 39.3705C210.172 36.2979 207.752 33.8589 204.693 32.1263ZM208.561 49.8716C208.561 52.7358 207.947 55.3442 206.732 57.6168C205.514 59.8842 203.801 61.6758 201.628 62.9316C199.45 64.1926 196.943 64.8316 194.174 64.8316H187.909V34.961H194.174C196.941 34.961 199.449 35.5989 201.628 36.861C203.801 38.12 205.518 39.901 206.732 42.1516C207.947 44.4084 208.561 47.0063 208.561 49.8716Z" fill="#00707F"/>
<path d="M255.29 35.1663C256.168 35.1663 256.896 34.9137 257.443 34.401C258.001 33.8874 258.28 33.2095 258.28 32.3916C258.28 31.5379 258.004 30.8368 257.451 30.3084C256.9 29.78 256.176 29.5147 255.293 29.5147H232.056C231.207 29.5147 230.483 29.7968 229.9 30.361C229.313 30.9242 229.018 31.66 229.018 32.5432V67.2484C229.018 68.0958 229.313 68.821 229.897 69.4021C230.48 69.9832 231.207 70.2779 232.056 70.2779H255.297C256.176 70.2779 256.903 70.0105 257.453 69.4863C258.004 68.9526 258.284 68.2526 258.284 67.4032C258.284 66.58 258.004 65.9074 257.451 65.3895C256.9 64.8821 256.176 64.6284 255.297 64.6284H235.103V52.5442H249.487C250.333 52.5442 251.05 52.2789 251.615 51.7516C252.189 51.221 252.475 50.5358 252.475 49.7126C252.475 48.8958 252.189 48.2074 251.615 47.6768C251.051 47.1526 250.333 46.8821 249.487 46.8821H235.103V35.1621H255.29V35.1663Z" fill="#7D8E90"/>
<path d="M301.309 32.341C301.309 31.5663 301.065 30.9 300.577 30.3516C300.074 29.7958 299.402 29.5137 298.582 29.5137C297.688 29.5137 296.955 29.8063 296.406 30.3958L285.168 45.3042L274.404 30.4305C273.958 29.821 273.217 29.5137 272.21 29.5137C271.345 29.5137 270.648 29.8137 270.131 30.4063C269.629 30.9842 269.373 31.6873 269.373 32.4916C269.373 33.1884 269.573 33.7979 269.957 34.2968L281.109 49.7137L269.294 65.3884C268.834 65.9968 268.605 66.6947 268.605 67.4558C268.605 68.2273 268.852 68.8937 269.339 69.4421C269.836 69.9979 270.525 70.2842 271.39 70.2842C272.205 70.2842 272.915 69.9874 273.499 69.4063L285.055 54.1295L295.93 69.1684C296.512 69.9063 297.301 70.2842 298.272 70.2842C299.136 70.2842 299.834 69.9831 300.349 69.3873C300.854 68.8052 301.108 68.1231 301.108 67.3505C301.108 66.6674 300.895 66.0095 300.475 65.4031L289.115 49.6737L300.688 34.2831C301.1 33.6431 301.309 32.9905 301.309 32.341Z" fill="#7D8E90"/>
<path d="M330.389 31.5442C329.883 30.1979 328.92 29.5137 327.521 29.5137C326.196 29.5137 325.239 30.1873 324.664 31.5284L310.213 65.9337C310.023 66.4137 309.93 66.8589 309.93 67.2474C309.93 68.0579 310.213 68.7684 310.773 69.3642C311.336 69.9674 312.062 70.2768 312.918 70.2768C313.502 70.2768 314.054 70.1116 314.555 69.78C315.059 69.4579 315.448 68.9979 315.722 68.4105L318.556 61.461H336.521L339.308 68.4063C339.543 68.9926 339.926 69.4526 340.454 69.7842C340.975 70.1116 341.533 70.2768 342.115 70.2768C342.964 70.2768 343.692 69.9821 344.275 69.401C344.858 68.82 345.156 68.1105 345.156 67.2968C345.156 66.9463 345.067 66.5316 344.871 66.0295L330.389 31.5442ZM334.434 56.321H320.668L327.623 39.4126L334.434 56.321Z" fill="#7D8E90"/>
<path d="M396.514 30.3873C395.932 29.8063 395.205 29.5137 394.356 29.5137C393.189 29.5137 392.285 30.0589 391.654 31.1579L377.126 60.9852L362.181 31.1316C361.563 30.0589 360.662 29.5147 359.494 29.5147C358.644 29.5147 357.917 29.8073 357.333 30.3884C356.75 30.9705 356.457 31.6947 356.457 32.5431V67.2484C356.457 68.0958 356.75 68.821 357.333 69.4021C357.917 69.9831 358.644 70.2779 359.494 70.2779C360.348 70.2779 361.076 69.9831 361.658 69.4021C362.242 68.821 362.538 68.0958 362.538 67.2484V43.7874L374.125 66.9463C374.705 68.1379 375.647 68.74 376.924 68.74C378.013 68.74 378.891 68.2379 379.545 67.2389L391.309 43.3463V67.2473C391.309 68.0947 391.608 68.82 392.191 69.401C392.774 69.9821 393.5 70.2768 394.356 70.2768C395.169 70.2768 395.884 69.9863 396.487 69.4073C397.087 68.8263 397.393 68.0989 397.393 67.2473V32.5421C397.393 31.6947 397.098 30.9695 396.514 30.3873Z" fill="#7D8E90"/>
<path d="M28.3169 42.2895L47.7481 27.5105V73.6105C47.7481 74.9979 48.8851 76.1273 50.2755 76.1273C51.6659 76.1273 52.7986 74.9989 52.7986 73.6105V22.421C52.7986 21.4589 52.2634 20.5947 51.3956 20.1663C50.5289 19.7389 49.5133 19.8358 48.7426 20.4221L26.784 37.1221L4.82538 20.4231C4.05471 19.8358 3.04018 19.7368 2.17556 20.1674C1.30883 20.5947 0.772534 21.4589 0.772534 22.421V73.6084C0.772534 74.9916 1.90319 76.1273 3.2925 76.1273C4.68497 76.1273 5.81879 74.9926 5.81879 73.6084V27.5105L25.2511 42.2895C26.1569 42.9789 27.4174 42.9789 28.3169 42.2895Z" fill="#7D8E90"/>
<path d="M26.829 2.98105C26.7182 2.98105 26.6063 2.98842 26.4733 3.00947C26.4437 3.01263 26.4152 3.01684 26.3856 3.02316C26.2706 3.04526 26.1629 3.07157 26.0615 3.10315C26.0404 3.10736 26.0193 3.11789 26.0003 3.12421L25.9686 3.13158C25.8937 3.16 25.8177 3.19368 25.7448 3.22631L25.7174 3.24C25.6878 3.25368 25.6593 3.26736 25.6298 3.2821C25.5506 3.32104 25.4756 3.36842 25.3912 3.42631C25.3479 3.45473 25.3057 3.49158 25.2613 3.5221C25.2106 3.5621 25.1652 3.60104 25.1177 3.6421C25.0597 3.69894 25.0101 3.74841 24.9636 3.8C24.9172 3.85158 24.8739 3.90315 24.8295 3.95683L24.8243 3.97263C24.7989 4.00105 24.7736 4.03368 24.7525 4.06736C24.6944 4.15157 24.6374 4.23895 24.5899 4.32947C24.5793 4.35262 24.573 4.37473 24.5656 4.39368L24.5498 4.41473C24.4938 4.53263 24.4537 4.6421 24.422 4.7421L24.3745 4.88525C24.2478 5.28841 24.2267 5.71052 24.3059 6.11473V20.6105C24.3059 21.9979 25.4376 23.1263 26.8269 23.1263C28.2194 23.1263 29.3532 21.9989 29.3532 20.6105V8.09263C36.2364 8.50947 42.6614 10.5842 48.2376 13.9189C54.025 17.3968 58.9224 22.2274 62.4748 27.96C62.515 28.0253 62.5582 28.0842 62.5941 28.1505C62.6047 28.1726 62.6184 28.1926 62.6374 28.22C66.495 34.5779 68.714 42.0295 68.714 49.9632C68.714 72.2547 51.4079 90.5853 29.311 91.7179V83.7137C29.311 82.3284 28.1729 81.1926 26.7836 81.1926C25.3943 81.1926 24.2595 82.3274 24.2595 83.7137V94.2884C24.2595 95.6779 25.3933 96.8095 26.7836 96.8095H27.1574C39.6928 96.8095 51.4269 91.9316 60.203 83.0758C68.9474 74.2537 73.7666 62.4958 73.7666 49.9642C73.7656 24.0653 52.7075 2.98105 26.829 2.98105Z" fill="#00707F"/>
<path d="M24.2639 71.9421C24.2639 73.3305 25.3935 74.4631 26.7881 74.4631C28.1774 74.4631 29.3112 73.3315 29.3112 71.9421V63.0989H38.159C39.5484 63.0989 40.6822 61.9705 40.6822 60.5852C40.6822 59.1947 39.5484 58.0652 38.159 58.0652H29.3112V49.22C29.3112 47.8336 28.1774 46.7052 26.7881 46.7052C25.3945 46.7052 24.2639 47.8326 24.2639 49.22V58.0652H14.5451C13.1558 58.0652 12.0209 59.1936 12.0209 60.5852C12.0209 61.9694 13.1547 63.0989 14.5451 63.0989H24.2639V71.9421Z" fill="#00707F"/>
<path d="M98.4603 99.2095C96.9348 99.2095 95.7028 97.9779 95.7028 96.46V3.33263C95.7018 1.81474 96.9338 0.58316 98.4603 0.58316C99.9805 0.58316 101.215 1.81474 101.215 3.33263V96.46C101.215 97.9779 99.9805 99.2095 98.4603 99.2095Z" fill="#00707F"/>
</svg>
